<?xml version="1.0" encoding="UTF-8" standalone="no"?>
<svg version="1.0" width="680.000000pt" height="680.000000pt" viewBox="0 0 680.000000 680.000000" preserveAspectRatio="xMidYMid meet" id="svg177" sodipodi:docname="logo.svg" inkscape:version="1.1.1 (3bf5ae0d25, 2021-09-20)"
  xmlns:inkscape="http://www.inkscape.org/namespaces/inkscape"
  xmlns:sodipodi="http://sodipodi.sourceforge.net/DTD/sodipodi-0.dtd"
  xmlns="http://www.w3.org/2000/svg"
  xmlns:svg="http://www.w3.org/2000/svg">
  <defs id="defs181" />
  <sodipodi:namedview id="namedview179" pagecolor="#505050" bordercolor="#eeeeee" borderopacity="1" inkscape:pageshadow="0" inkscape:pageopacity="0" inkscape:pagecheckerboard="0" inkscape:document-units="pt" showgrid="false" inkscape:zoom="1.8352941" inkscape:cx="502.09936" inkscape:cy="427.9968" inkscape:window-width="1920" inkscape:window-height="1017" inkscape:window-x="1912" inkscape:window-y="-8" inkscape:window-maximized="1" inkscape:current-layer="svg177" />
  <g transform="translate(0.000000,680.000000) scale(0.100000,-0.100000)" fill="#000000" stroke="none" id="g175">
    <!-- Eyes -->
    <path fill="#31302c" d="M1966 3490 c-64 -20 -113 -69 -143 -145 -8 -20 -12 -124 -12 -322 -1 -272 0 -296 20 -347 23 -63 68 -107 128 -125 25 -7 143 -11 342 -11 341 0 354 3 416 73 52 59 55 82 51 429 l-3 316 -30 44 c-20 28 -49 52 -84 71 l-55 27 -300 -1 c-166 0 -314 -5 -330 -9z" id="path167" />
    <path fill="#31302c" d="M4210 3491 c-72 -22 -119 -63 -145 -123 -12 -31 -15 -90 -15 -350 0 -283 2 -317 19 -354 22 -48 82 -101 131 -114 53 -15 613 -13 664 2 57 17 111 75 130 139 20 66 23 572 4 646 -15 60 -87 137 -143 152 -46 12 -605 14 -645 2z" id="path169" />
    <!-- Mask around eyes -->
    <path fill="#57e48b" d="m 2731.0577,4700.6125 c -184.2936,303.2298 -381.7223,-65.1185 -397.7223,-73.1185 -11,-5 -271.6515,7.4976 -311.6515,-0.5024 -176,-39 -507.2801,-171.6358 -607.2801,-242.6358 -78,-56 -407.4196,-480.4863 -455.41957,-558.4863 -91,-150 -76.7727,-228.5618 -76.7727,-843.5618 0,-539 313.53367,-1162.8558 361.53367,-1280.8558 287.809,42.428 -545.01252,109.7341 560.1565,-456.5618 74,-26 97.2076,-53.6688 295.2076,-91.6688 80,-15 314.916,-9.5552 399.916,12.4448 162,41 319.1103,122.6623 491.1103,287.6623 72,70 222.481,-39.6952 289.481,-27.6952 93,16 433.5092,82.2405 475.5092,64.2405 16,-7 36.2142,-3.7661 84.2142,-48.7661 110,-105 219.1169,-167.1104 308.1169,-211.1104 222,-112 419.7924,-154.6754 759.7924,-72.6754 335,80 600.2273,320.7924 678.2273,548.7924 39,114 10.53,810.8858 10.53,1308.8858 0,512 186.2642,1088.1404 144.2642,1198.1404 -49,128 -177.7793,289.0066 -316.7793,368.0066 -88,49 -275.7792,145.7858 -405.7792,173.7858 -41,9 -101.3377,37.3377 -112.3377,42.3377 -50,22 -372.2208,-29.5782 -514.2208,-29.5782 -126,0 -188.6153,-0.4415 -237.6153,-44.4415 -35,-31 -79.7257,-111.2241 -85.7257,-175.2241 -2,-34 -31.3377,-105.2841 -42.3377,-129.2841 -23,-51 -50.8798,-71.1574 -100.8798,-86.1574 -22,-6 -147.6655,-12.612 -347.6655,-10.612 l -307.776,0.7191 -33.8863,27.9465 c -68,48 -94.9432,98.1103 -103.9432,178.1103 -12,98 -42.5016,162.8897 -80.5016,191.8897 -63,48 -14.765,-22.4176 -156.765,-23.4176 -73,-1 -146,5.3913 -163,3.3913 z M 2611,3484 c 67,-20 132,-81 148,-139 7,-25 11,-150 11,-336 v -295 l -26,-51 c -18,-38 -39,-60 -77,-85 l -51,-33 -301,-3 c -333,-3 -361,0 -424,54 -72,62 -76,86 -76,434 0,264 2,310 17,340 29,62 82,103 153,121 17,4 152,7 301,8 222,1 280,-2 325,-15 z m 2274,-11 c 51,-27 89,-69 104,-112 7,-22 11,-139 11,-344 0,-294 -1,-313 -21,-354 -24,-51 -79,-96 -134,-112 -28,-9 -131,-11 -341,-9 l -301,3 -48,30 c -36,22 -57,45 -77,84 l -28,53 v 304 c 0,332 2,349 58,407 68,71 94,76 442,74 281,-2 297,-3 335,-24 z" id="path171" sodipodi:nodetypes="cccccsccccccccccssccccscccccccccccccsccccccsccccccscccccccsccc" />
    <!-- Outline of the whole logo -->
    <path fill="#9aecb8" d="M480 5976 c-224 -49 -388 -284 -351 -502 40 -226 222 -384 445 -384 39 0 87 5 106 10 l35 10 238 -239 239 -238 -36 -47 c-152 -199 -247 -471 -271 -773 l-7 -83 -144 0 c-124 0 -150 -3 -183 -20 -51 -25 -114 -99 -129 -148 -18 -61 -17 -1023 2 -1085 19 -63 49 -102 104 -134 44 -26 56 -28 197 -33 l150 -5 7 -60 c22 -186 32 -245 58 -340 87 -321 270 -572 555 -760 235 -154 521 -250 920 -307 141 -20 196 -22 930 -26 540 -2 815 0 895 8 535 54 887 171 1185 395 116 88 163 136 259 269 147 204 220 420 254 751 l7 70 150 5 c160 5 181 11 238 64 15 14 39 49 52 78 l25 53 0 503 c0 338 -4 518 -11 547 -14 56 -79 131 -134 156 -33 15 -66 19 -180 19 l-141 0 -12 118 c-21 201 -72 393 -143 534 -26 52 -113 190 -154 245 -7 10 48 71 226 249 l236 236 39 -11 c63 -17 175 -13 248 9 120 38 242 155 280 270 9 26 16 93 18 160 3 112 2 117 -29 183 -41 85 -135 183 -213 219 -185 88 -393 44 -533 -112 -94 -105 -131 -230 -108 -366 l13 -77 -239 -239 c-131 -131 -243 -238 -250 -238 -6 0 -42 18 -80 39 -37 22 -120 60 -183 84 -446 172 -791 217 -1652 217 -732 0 -1051 -32 -1422 -140 -142 -42 -313 -110 -414 -165 -34 -19 -68 -35 -75 -35 -7 0 -119 107 -250 238 l-239 239 13 76 c40 237 -128 471 -370 517 -66 12 -101 12 -171 -4z m2324 -1691 c27 -14 54 -32 62 -40 27 -27 57 -109 64 -177 9 -81 40 -134 102 -175 l41 -28 316 -3 c198 -2 329 1 351 7 80 24 150 118 150 201 0 94 55 184 135 221 93 43 533 8 825 -66 111 -28 255 -77 314 -107 75 -38 186 -120 237 -176 92 -101 136 -203 158 -365 14 -100 14 -1029 1 -1117 -25 -164 -56 -233 -173 -382 -19 -24 -162 -120 -234 -156 -168 -85 -467 -161 -635 -162 -128 0 -190 16 -333 88 -119 59 -193 113 -313 226 -128 121 -119 119 -495 114 -321 -4 -326 -5 -392 -82 -93 -109 -342 -272 -481 -316 -166 -53 -411 -29 -679 67 -348 124 -525 309 -565 593 -8 61 -11 238 -8 620 4 521 4 537 27 615 43 152 114 252 246 350 92 69 166 105 302 149 141 45 251 69 433 95 194 28 194 28 356 29 133 2 144 1 188 -23z" id="path173" />
  </g>
</svg>
